<?xml version="1.0" standalone="no"?>
<!DOCTYPE svg PUBLIC "-//W3C//DTD SVG 20010904//EN"
 "http://www.w3.org/TR/2001/REC-SVG-20010904/DTD/svg10.dtd">
<svg version="1.0" xmlns="http://www.w3.org/2000/svg"
 width="528.000000pt" height="597.000000pt" viewBox="0 0 528.000000 597.000000"
 preserveAspectRatio="xMidYMid meet">
<metadata>
Created by potrace 1.15, written by Peter Selinger 2001-2017
</metadata>
<g transform="translate(0.000000,597.000000) scale(0.100000,-0.100000)"
fill="#ffffff" stroke="none">
<path d="M2324 5741 c-117 -42 -293 -183 -904 -725 -631 -559 -878 -791 -936
-877 -60 -90 -116 -208 -147 -304 -22 -71 -25 -104 -31 -290 -14 -474 -17
-741 -18 -1355 -1 -701 -1 -703 56 -831 39 -88 92 -127 341 -249 288 -141 925
-430 1520 -690 367 -160 485 -207 556 -221 91 -18 300 -7 369 20 66 25 175
108 529 405 145 122 298 250 340 285 42 35 92 78 111 95 19 17 98 85 175 151
77 65 142 122 145 125 3 3 59 52 125 109 335 292 415 373 460 466 58 117 60
150 60 870 -1 1329 -13 1564 -91 1723 -49 100 -185 238 -303 306 -208 121
-2049 955 -2189 991 -73 19 -106 18 -168 -4z m235 -287 c293 -118 1658 -739
1956 -892 98 -50 184 -117 223 -174 58 -85 67 -144 77 -473 3 -99 7 -241 10
-315 3 -74 7 -346 10 -605 3 -258 8 -562 11 -674 l6 -204 -63 -136 -62 -136
-504 -430 c-804 -685 -1093 -924 -1152 -955 -20 -10 -63 -23 -96 -29 -131 -24
-92 -38 -851 302 -384 172 -891 398 -1126 502 l-426 190 -13 40 c-7 22 -16
105 -20 185 -7 146 -3 1720 6 1795 2 22 6 96 9 165 12 286 61 355 581 826 220
199 932 827 1045 921 140 117 179 142 229 143 19 0 86 -21 150 -46z"/>
<path d="M2385 5330 c-102 -40 -176 -144 -183 -257 -9 -139 59 -230 212 -283
106 -36 201 -19 280 51 158 139 128 365 -61 476 -62 36 -175 42 -248 13z m192
-219 c31 -46 30 -84 -4 -110 -14 -12 -37 -24 -49 -27 -53 -13 -134 40 -134 88
0 11 16 36 35 55 31 31 39 34 82 31 41 -3 50 -7 70 -37z"/>
<path d="M3746 4684 c-104 -33 -205 -184 -194 -287 7 -57 47 -144 84 -181 49
-48 121 -79 200 -84 93 -6 158 15 222 73 121 109 128 288 17 400 -80 80 -221
114 -329 79z m191 -216 c27 -25 31 -73 8 -105 -19 -27 -77 -46 -115 -38 -44
10 -83 61 -76 99 16 81 117 106 183 44z"/>
<path d="M2535 4566 c-95 -30 -139 -69 -182 -161 -68 -146 -6 -302 147 -374
115 -54 253 -26 348 70 59 59 74 92 80 169 6 89 -21 153 -94 219 -88 81 -198
109 -299 77z m156 -214 c24 -22 32 -37 33 -67 1 -35 -3 -41 -39 -62 -72 -41
-126 -24 -154 50 -18 47 -13 66 22 87 47 29 100 26 138 -8z"/>
<path d="M1290 4343 c-62 -22 -142 -105 -163 -167 -48 -141 5 -280 134 -351
49 -27 63 -30 144 -30 105 1 156 19 225 81 57 52 80 103 80 184 0 115 -64 215
-173 272 -56 29 -183 35 -247 11z m209 -237 c27 -55 27 -59 -11 -91 -28 -24
-38 -27 -87 -23 -41 4 -59 10 -73 28 -40 49 -6 124 62 139 53 11 86 -4 109
-53z"/>
<path d="M4488 4273 c-101 -82 -380 -322 -623 -537 -99 -87 -209 -185 -245
-216 -87 -76 -609 -538 -637 -563 l-22 -20 -98 43 c-54 23 -231 100 -393 170
-162 70 -414 180 -560 243 -146 63 -411 180 -590 259 -346 155 -458 198 -512
198 -42 0 -71 -28 -93 -89 -13 -38 -13 -45 0 -64 43 -62 225 -146 2088 -964
l57 -26 0 -481 c0 -264 3 -591 5 -726 3 -135 7 -369 10 -520 3 -151 10 -291
15 -311 20 -71 132 -92 189 -35 l26 26 2 968 c1 532 5 1001 9 1042 6 74 6 75
58 125 28 28 85 79 126 115 41 36 119 106 175 155 55 50 134 119 175 155 146
129 166 146 269 239 59 52 122 108 141 125 414 368 515 459 589 529 70 67 75
87 37 157 -25 47 -55 70 -93 70 -13 0 -58 -29 -105 -67z"/>
<path d="M2692 3700 c-109 -55 -184 -182 -168 -283 16 -99 86 -191 181 -236
99 -48 241 -24 335 56 118 101 121 290 6 405 -57 57 -117 81 -211 86 -74 3
-85 1 -143 -28z m214 -201 c52 -48 19 -128 -59 -143 -51 -9 -88 10 -111 58
-17 35 -18 42 -5 65 8 14 26 32 39 39 36 19 106 9 136 -19z"/>
<path d="M4465 3557 c-109 -52 -187 -174 -193 -304 -5 -81 8 -130 45 -174 49
-57 125 -75 196 -45 51 21 124 103 163 181 65 132 57 239 -25 319 -52 51 -112
58 -186 23z"/>
<path d="M3940 3163 c-19 -10 -59 -41 -88 -70 -87 -86 -131 -211 -112 -315 14
-73 41 -113 97 -142 186 -95 429 236 325 441 -24 47 -47 68 -95 88 -47 19 -83
19 -127 -2z"/>
<path d="M2330 2726 c-214 -57 -285 -326 -128 -485 104 -107 297 -111 413 -9
100 88 123 208 64 326 -70 141 -206 207 -349 168z m143 -212 c41 -30 52 -66
32 -107 -46 -98 -184 -61 -185 50 0 59 30 86 86 80 23 -2 53 -13 67 -23z"/>
<path d="M3457 2708 c-56 -12 -89 -32 -131 -79 -71 -77 -114 -212 -101 -308
19 -137 136 -206 251 -150 59 28 109 87 152 178 32 66 37 85 37 151 0 61 -5
83 -25 119 -42 75 -106 106 -183 89z"/>
<path d="M4455 2456 c-27 -13 -66 -40 -86 -60 -115 -117 -148 -325 -66 -415
29 -31 94 -61 135 -61 77 0 175 82 226 190 28 59 31 75 31 161 0 88 -2 99 -28
138 -48 72 -123 89 -212 47z"/>
<path d="M1562 2334 c-112 -56 -166 -142 -167 -264 0 -65 4 -82 30 -129 57
-104 146 -154 270 -154 67 0 90 4 137 27 169 80 211 299 85 442 -89 101 -242
135 -355 78z m173 -187 c30 -17 44 -33 55 -65 14 -41 14 -43 -13 -70 -23 -23
-36 -27 -81 -27 -91 0 -130 59 -91 135 28 54 67 63 130 27z"/>
<path d="M3961 2083 c-122 -23 -253 -242 -234 -392 17 -127 150 -199 261 -142
85 44 172 183 186 295 19 149 -83 263 -213 239z"/>
<path d="M900 1933 c-64 -23 -142 -105 -165 -172 -34 -102 -6 -222 68 -292
136 -130 334 -125 451 12 67 78 85 202 42 291 -26 55 -92 126 -140 150 -55 29
-191 35 -256 11z m177 -188 c11 -8 28 -36 37 -61 l15 -46 -28 -29 c-16 -16
-40 -29 -53 -30 -94 -5 -141 36 -124 106 15 59 104 94 153 60z"/>
<path d="M3414 1640 c-82 -46 -140 -132 -170 -252 -40 -153 35 -284 160 -282
87 1 164 57 220 158 63 114 72 232 24 318 -50 91 -139 113 -234 58z"/>
</g>
</svg>
